<?xml version="1.0" encoding="iso-8859-1"?>
<!-- Generator: Adobe Illustrator 21.0.0, SVG Export Plug-In . SVG Version: 6.00 Build 0)  -->
<svg xmlns="http://www.w3.org/2000/svg" xmlns:xlink="http://www.w3.org/1999/xlink" version="1.1" id="Capa_1" x="0px" y="0px" viewBox="0 0 512 512" style="enable-background:new 0 0 512 512;" xml:space="preserve" width="512" height="512">
<g>
	<g>
		<circle style="fill:#F4DEE8;" cx="256" cy="256" r="256"/>
		<path style="fill:#F4B4D1;" d="M512,256c0,141.38-114.62,256-256,256S0,397.38,0,256c0-46.22,12.25-89.57,33.68-127    C77.8,206.07,160.84,258,256,258s178.21-51.93,222.32-129C499.75,166.43,512,209.78,512,256z"/>
	</g>
	<g>
		<g>
			<path style="fill:#FFD112;" d="M440.75,433.2C394.16,481.76,328.61,512,256,512s-138.16-30.24-184.75-78.8H440.75z"/>
			<path style="fill:#FF9F00;" d="M440.75,433.2C394.16,481.76,328.61,512,256,512v-78.8H440.75z"/>
		</g>
		<g>
			<g>
				<polygon style="fill:#A63914;" points="261.807,275.306 301.551,314.315 301.551,275.306     "/>
				<path style="fill:#65B2FF;" d="M474.98,388.67c-9.64,15.88-20.95,30.62-33.7,43.99h-43.31v-113.2L474.98,388.67z"/>
				<path style="fill:#65B2FF;" d="M504.06,319.46c-1.69,6.63-3.63,13.16-5.83,19.57c-1.08,3.14-2.22,6.26-3.41,9.35      c-2.29,5.93-4.8,11.75-7.51,17.45c-1.5,3.15-3.06,6.27-4.69,9.35c-2.41,4.58-4.96,9.08-7.64,13.49      c-0.81,1.33-1.63,2.66-2.46,3.97c-2,3.17-4.07,6.29-6.2,9.35c-0.16,0.23-0.32,0.46-0.48,0.69c-3.34,4.76-6.83,9.41-10.49,13.93      l-0.01,0.01c-16.79,10.07-36.4,15.91-57.37,16.04c-25.29,0.16-48.72-8.16-67.68-22.26c-28.01-20.84-46.25-54.3-46.25-91.68      v-36.34c0-25.62,20.63-46.71,46.25-46.72c25.57-0.01,46.31,20.71,46.31,46.28c0,10.36,4.2,19.74,10.99,26.53      c6.79,6.79,16.17,10.99,26.53,10.99H504.06z"/>
				<path style="fill:#20273A;" d="M342.883,287.253c-2.582,0-4.676-2.093-4.676-4.675c0-7.477-6.083-13.561-13.561-13.561      c-7.477,0-13.561,6.083-13.561,13.561c0,2.582-2.093,4.675-4.676,4.675c-2.582,0-4.676-2.093-4.676-4.675      c0-12.634,10.278-22.912,22.912-22.912c12.634,0,22.912,10.278,22.912,22.912C347.559,285.159,345.465,287.253,342.883,287.253z      "/>
				<path style="fill:#1076E5;" d="M504.06,319.46c-1.69,6.63-3.63,13.16-5.83,19.57c-1.08,3.14-2.22,6.26-3.41,9.35      c-2.29,5.93-4.8,11.75-7.51,17.45c-1.5,3.15-3.06,6.27-4.69,9.35c-2.41,4.58-4.96,9.08-7.64,13.49      c-0.81,1.33-1.63,2.66-2.46,3.97c-2,3.17-4.07,6.29-6.2,9.35c-0.16,0.23-0.32,0.46-0.48,0.69c-3.34,4.76-6.83,9.41-10.49,13.93      c-4.77,2.87-9.77,5.39-14.97,7.53c-11.38,4.7-23.69,7.6-36.58,8.33c-28.35-3.18-50.38-27.23-50.38-56.42      c0-31.36,25.42-56.78,56.78-56.78h0.09c1.55,0,3.09,0.07,4.61,0.19H504.06z"/>
				<path style="fill:#0F9BE8;" d="M504.06,319.46c-6.29,24.7-16.18,47.97-29.08,69.21c-2.9,4.78-5.95,9.45-9.14,14.01      c-0.34,0.15-0.69,0.3-1.04,0.44c-4.86,2.01-9.93,3.6-15.16,4.74c-27.38,5.96-53.78-14.21-54.37-42.22      c0-0.32-0.01-0.65-0.01-0.97c0-23.66,18.1-43.09,41.2-45.21H504.06z"/>
				<path style="fill:#1076E5;" d="M498.23,339.03c-1.08,3.14-2.22,6.26-3.41,9.35h-52.87c-2.58,0-4.67-2.1-4.67-4.68      c0-2.58,2.09-4.67,4.67-4.67H498.23z"/>
				<path style="fill:#1076E5;" d="M487.31,365.83c-1.5,3.15-3.06,6.27-4.69,9.35h-40.67c-2.58,0-4.67-2.09-4.67-4.67      c0-2.58,2.09-4.68,4.67-4.68H487.31z"/>
				<path style="fill:#1076E5;" d="M472.52,392.64c-2,3.17-4.07,6.29-6.2,9.35h-24.37c-2.58,0-4.67-2.1-4.67-4.68      c0-2.58,2.09-4.67,4.67-4.67H472.52z"/>
			</g>
			<g>
				<polygon style="fill:#A63914;" points="250.193,275.306 210.449,314.315 210.449,275.306     "/>
				<g>
					<path style="fill:#FB3860;" d="M227.96,282.38v36.34c0,37.38-18.24,70.84-46.25,91.68c-18.96,14.1-42.39,22.42-67.68,22.26       c-20.97-0.13-40.58-5.97-57.37-16.04l-0.01-0.01c-3.65-4.51-7.14-9.16-10.47-13.93c-0.17-0.23-0.33-0.46-0.49-0.69       c-2.14-3.07-4.21-6.19-6.2-9.35c-0.84-1.32-1.66-2.64-2.47-3.97c-2.68-4.41-5.22-8.91-7.63-13.49       c-1.63-3.08-3.19-6.2-4.69-9.35c-2.72-5.7-5.22-11.52-7.51-17.45c-1.21-3.09-2.34-6.2-3.42-9.35       c-2.2-6.41-4.15-12.94-5.84-19.57h89.95c10.36,0,19.74-4.2,26.53-10.99c6.79-6.79,10.99-16.17,10.99-26.53       c0-25.57,20.74-46.29,46.31-46.28C207.33,235.67,227.96,256.76,227.96,282.38z"/>
				</g>
				<g>
					<path style="fill:#FB3860;" d="M114.03,319.46v113.2H70.72c-12.75-13.37-24.06-28.11-33.7-43.99L114.03,319.46z"/>
					<path style="fill:#20273A;" d="M205.59,287.253c-2.582,0-4.676-2.093-4.676-4.675c0-7.477-6.083-13.561-13.561-13.561       c-6.96,0-12.893,5.421-13.507,12.342c-0.299,3.361-3.063,5.894-6.43,5.894h-8.382c-2.582,0-4.676-2.093-4.676-4.675       c0-2.582,2.093-4.676,4.676-4.676h5.885c0.967-4.663,3.372-8.921,6.925-12.19c4.238-3.899,9.746-6.047,15.509-6.047       c12.634,0,22.912,10.278,22.912,22.912C210.265,285.159,208.172,287.253,205.59,287.253z"/>
					<path style="fill:#BA0D5C;" d="M158.58,376.05c0,29.19-22.03,53.24-50.38,56.42c-12.89-0.73-25.2-3.63-36.58-8.33       c-5.2-2.14-10.2-4.66-14.97-7.53c-3.65-4.51-7.14-9.16-10.47-13.93c-0.17-0.23-0.33-0.46-0.49-0.69       c-2.14-3.07-4.21-6.19-6.2-9.35c-0.84-1.32-1.66-2.64-2.47-3.97c-2.68-4.41-5.22-8.91-7.63-13.49       c-1.63-3.08-3.19-6.2-4.69-9.35c-2.72-5.7-5.22-11.52-7.51-17.45c-1.21-3.09-2.34-6.2-3.42-9.35       c-2.2-6.41-4.15-12.94-5.84-19.57H97.1c1.52-0.12,3.06-0.19,4.61-0.19h0.09C133.16,319.27,158.58,344.69,158.58,376.05z"/>
					<path style="fill:#DD1265;" d="M116.74,364.67c0,0.32-0.01,0.65-0.01,0.97c-0.59,28.01-26.99,48.18-54.37,42.22       c-5.23-1.14-10.3-2.73-15.16-4.74c-0.34-0.14-0.68-0.28-1.02-0.44c-0.17-0.23-0.33-0.46-0.49-0.69       c-2.14-3.07-4.21-6.19-6.2-9.35c-0.84-1.32-1.66-2.64-2.47-3.97c-2.68-4.41-5.22-8.91-7.63-13.49       c-1.63-3.08-3.19-6.2-4.69-9.35c-2.72-5.7-5.22-11.52-7.51-17.45c-1.21-3.09-2.34-6.2-3.42-9.35       c-2.2-6.41-4.15-12.94-5.84-19.57h67.61C98.64,321.58,116.74,341.01,116.74,364.67z"/>
					<path style="fill:#BA0D5C;" d="M74.72,343.7c0,2.58-2.09,4.68-4.67,4.68H17.19c-1.21-3.09-2.34-6.2-3.42-9.35h56.28       C72.63,339.03,74.72,341.12,74.72,343.7z"/>
					<path style="fill:#BA0D5C;" d="M74.72,370.51c0,2.58-2.09,4.67-4.67,4.67H29.39c-1.63-3.08-3.19-6.2-4.69-9.35h45.35       C72.63,365.83,74.72,367.93,74.72,370.51z"/>
					<path style="fill:#BA0D5C;" d="M74.72,397.31c0,2.58-2.09,4.68-4.67,4.68H45.69c-2.14-3.07-4.21-6.19-6.2-9.35h30.56       C72.63,392.64,74.72,394.73,74.72,397.31z"/>
				</g>
				<path style="fill:#20273A;" d="M172.538,276.114c-0.943,0-1.895-0.284-2.719-0.875l-9.351-6.702      c-2.099-1.504-2.581-4.425-1.077-6.524c1.504-2.099,4.425-2.581,6.524-1.077l9.351,6.701c2.099,1.504,2.581,4.425,1.077,6.524      C175.429,275.436,173.994,276.114,172.538,276.114z"/>
			</g>
		</g>
	</g>
	<g>
		<path style="fill:#FF3445;" d="M278.929,209.215l-27.337,27.337l-27.339-27.337c-7.549-7.549-7.549-19.79,0-27.339    c3.773-3.773,8.722-5.661,13.671-5.661c4.946,0,9.893,1.888,13.668,5.661c7.549-7.549,19.787-7.549,27.337,0    S286.478,201.665,278.929,209.215z"/>
		<path style="fill:#DD1265;" d="M278.926,209.216l-27.336,27.336v-54.678c5.411-5.411,13.231-6.941,20.006-4.595    c2.677,0.924,5.194,2.46,7.329,4.595C286.479,189.426,286.479,201.663,278.926,209.216z"/>
	</g>
</g>















</svg>
