<?xml version="1.0" encoding="iso-8859-1"?>
<!-- Generator: Adobe Illustrator 19.0.0, SVG Export Plug-In . SVG Version: 6.00 Build 0)  -->
<svg version="1.1" id="Capa_1" xmlns="http://www.w3.org/2000/svg" xmlns:xlink="http://www.w3.org/1999/xlink" x="0px" y="0px"
	 viewBox="0 0 512 512" style="enable-background:new 0 0 512 512;" xml:space="preserve">
<path style="fill:#FF9811;" d="M256,123.733c-94.259,0-170.667,76.416-170.667,170.667c0,23.492,4.847,46.729,14.251,68.267h312.832
	c37.7-86.391-1.766-186.982-88.149-224.683C302.729,128.58,279.492,123.733,256,123.733z"/>
<g>
	<path style="fill:#231F20;" d="M256,106.667c-4.71,0-8.533-3.823-8.533-8.533v-51.2c0-4.71,3.823-8.533,8.533-8.533
		c4.71,0,8.533,3.823,8.533,8.533v51.2C264.533,102.844,260.71,106.667,256,106.667z"/>
	<path style="fill:#231F20;" d="M180.907,121.609c-3.456,0.009-6.571-2.074-7.893-5.265L159.957,84.77
		c-1.673-4.403,0.538-9.335,4.941-11.008c4.224-1.604,8.969,0.358,10.82,4.48l13.065,31.573c1.809,4.352-0.265,9.344-4.617,11.153
		c-1.033,0.427-2.142,0.649-3.26,0.649V121.609z"/>
	<path style="fill:#231F20;" d="M74.667,227.84c-1.118,0-2.219-0.222-3.251-0.649l-31.573-13.056
		c-4.352-1.801-6.426-6.793-4.617-11.145c1.809-4.352,6.793-6.426,11.145-4.625l31.531,13.056c4.352,1.801,6.426,6.793,4.625,11.145
		C81.203,225.749,78.106,227.831,74.667,227.84z"/>
	<path style="fill:#231F20;" d="M437.333,227.84c-4.71,0-8.533-3.814-8.542-8.525c0-3.456,2.082-6.571,5.274-7.893l31.573-13.056
		c4.352-1.801,9.344,0.265,11.145,4.625c1.801,4.361-0.264,9.344-4.625,11.145l-31.573,13.056
		C439.561,227.618,438.451,227.84,437.333,227.84z"/>
	<path style="fill:#231F20;" d="M331.093,121.609c-4.71,0-8.533-3.823-8.525-8.542c0-1.118,0.222-2.227,0.649-3.26l13.065-31.531
		c1.929-4.301,6.98-6.221,11.281-4.292c4.122,1.852,6.093,6.596,4.48,10.82l-13.056,31.573
		C337.655,119.552,334.541,121.617,331.093,121.609z"/>
	<path style="fill:#231F20;" d="M117.214,164.147c-2.261,0-4.437-0.896-6.033-2.5L74.982,125.44
		c-3.465-3.191-3.695-8.593-0.503-12.058c3.191-3.465,8.593-3.695,12.058-0.503c0.171,0.162,0.341,0.324,0.503,0.503l36.198,36.198
		c3.328,3.337,3.328,8.738,0,12.066c-1.596,1.596-3.772,2.5-6.033,2.5L117.214,164.147L117.214,164.147z"/>
	<path style="fill:#231F20;" d="M59.733,302.933h-51.2C3.823,302.933,0,299.11,0,294.4s3.823-8.533,8.533-8.533h51.2
		c4.71,0,8.533,3.823,8.533,8.533S64.444,302.933,59.733,302.933z"/>
	<path style="fill:#231F20;" d="M503.467,302.933h-51.2c-4.71,0-8.533-3.823-8.533-8.533s3.823-8.533,8.533-8.533h51.2
		c4.71,0,8.533,3.823,8.533,8.533S508.177,302.933,503.467,302.933z"/>
	<path style="fill:#231F20;" d="M394.786,164.147c-4.71,0-8.533-3.823-8.533-8.533c0-2.261,0.896-4.429,2.5-6.033l36.207-36.198
		c3.191-3.465,8.593-3.695,12.058-0.503c3.465,3.191,3.695,8.593,0.503,12.058c-0.162,0.171-0.324,0.341-0.503,0.503l-36.198,36.198
		C399.223,163.243,397.047,164.147,394.786,164.147z"/>
	<path style="fill:#231F20;" d="M503.467,354.133h-78.72c33.306-93.193-15.241-195.746-108.442-229.052
		S120.559,140.322,87.253,233.523c-13.935,38.997-13.935,81.621,0,120.619H8.533c-4.71,0-8.533,3.823-8.533,8.533
		c0,4.71,3.823,8.533,8.533,8.533h494.933c4.71,0,8.533-3.823,8.533-8.533C512,357.965,508.177,354.133,503.467,354.133z
		 M105.267,354.133c-32.981-83.251,7.765-177.468,91.008-210.458s177.468,7.765,210.458,91.008
		c15.198,38.366,15.198,81.084,0,119.45H105.267z"/>
	<path style="fill:#231F20;" d="M452.267,405.333H59.733c-4.71,0-8.533-3.823-8.533-8.533s3.823-8.533,8.533-8.533h392.533
		c4.71,0,8.533,3.823,8.533,8.533S456.977,405.333,452.267,405.333z"/>
	<path style="fill:#231F20;" d="M409.6,439.467H102.4c-4.71,0-8.533-3.823-8.533-8.533s3.823-8.533,8.533-8.533h307.2
		c4.71,0,8.533,3.823,8.533,8.533S414.31,439.467,409.6,439.467z"/>
	<path style="fill:#231F20;" d="M358.4,473.6H153.6c-4.71,0-8.533-3.823-8.533-8.533s3.823-8.533,8.533-8.533h204.8
		c4.71,0,8.533,3.823,8.533,8.533S363.11,473.6,358.4,473.6z"/>
</g>
<g>
</g>
<g>
</g>
<g>
</g>
<g>
</g>
<g>
</g>
<g>
</g>
<g>
</g>
<g>
</g>
<g>
</g>
<g>
</g>
<g>
</g>
<g>
</g>
<g>
</g>
<g>
</g>
<g>
</g>
</svg>
